<?xml version="1.0" encoding="utf-8"?>
<!-- Generator: Adobe Illustrator 22.0.1, SVG Export Plug-In . SVG Version: 6.00 Build 0)  -->
<svg version="1.1" id="Layer_1" xmlns="http://www.w3.org/2000/svg" xmlns:xlink="http://www.w3.org/1999/xlink" x="0px" y="0px"
	 viewBox="0 0 24 24" style="enable-background:new 0 0 24 24;" xml:space="preserve">
<style type="text/css">
	.st0{fill:url(#SVGID_1_);}
</style>
<linearGradient id="SVGID_1_" gradientUnits="userSpaceOnUse" x1="7.0388" y1="1.2764" x2="18.0041" y2="20.2688">
	<stop  offset="0" style="stop-color:#651916"/>
	<stop  offset="0.2742" style="stop-color:#661B19"/>
	<stop  offset="0.4838" style="stop-color:#6A2323"/>
	<stop  offset="0.672" style="stop-color:#702F33"/>
	<stop  offset="0.8466" style="stop-color:#78414A"/>
	<stop  offset="1" style="stop-color:#825665"/>
</linearGradient>
<path class="st0" d="M11.5,12.4c-2.1,0-3.8-1.7-3.8-3.9c0-2.1,1.7-3.9,3.8-3.9s3.8,1.7,3.8,3.9C15.3,10.6,13.6,12.4,11.5,12.4
	 M11.5,0C6.8,0,3,3.8,3,8.5c0,4.5,3.8,10.2,6.4,13c1,1,2.1,2.5,2.1,2.5s1.2-1.4,2.2-2.5c2.6-2.7,6.3-8.1,6.3-13
	C20,3.8,16.2,0,11.5,0"/>
</svg>
