<svg enable-background="new 0 0 24 24" viewBox="0 0 24 24" xmlns="http://www.w3.org/2000/svg" xmlns:xlink="http://www.w3.org/1999/xlink"><linearGradient id="a" gradientUnits="userSpaceOnUse" x1="7.0388" x2="18.0041" y1="1.2764" y2="20.2688"><stop offset="0" stop-color="#651916"/><stop offset=".2742" stop-color="#661b19"/><stop offset=".4838" stop-color="#6a2323"/><stop offset=".672" stop-color="#702f33"/><stop offset=".8466" stop-color="#78414a"/><stop offset="1" stop-color="#825665"/></linearGradient><path d="m11.5 12.4c-2.1 0-3.8-1.7-3.8-3.9 0-2.1 1.7-3.9 3.8-3.9s3.8 1.7 3.8 3.9c0 2.1-1.7 3.9-3.8 3.9m0-12.4c-4.7 0-8.5 3.8-8.5 8.5 0 4.5 3.8 10.2 6.4 13 1 1 2.1 2.5 2.1 2.5s1.2-1.4 2.2-2.5c2.6-2.7 6.3-8.1 6.3-13 0-4.7-3.8-8.5-8.5-8.5" fill="url(#a)"/></svg>