<?xml version="1.0" encoding="utf-8"?>
<!-- Generator: Adobe Illustrator 22.0.1, SVG Export Plug-In . SVG Version: 6.00 Build 0)  -->
<svg version="1.1" id="Layer_1" xmlns="http://www.w3.org/2000/svg" xmlns:xlink="http://www.w3.org/1999/xlink" x="0px" y="0px"
	 viewBox="0 0 24 24" style="enable-background:new 0 0 24 24;" xml:space="preserve">
<style type="text/css">
	.st0{fill:url(#SVGID_1_);}
	.st1{fill:url(#SVGID_2_);}
	.st2{fill:url(#SVGID_3_);}
	.st3{fill:url(#SVGID_4_);}
	.st4{fill:url(#SVGID_5_);}
</style>
<g id="Layer_1_1_">
	<g>
		<linearGradient id="SVGID_1_" gradientUnits="userSpaceOnUse" x1="5.9939" y1="1.6972" x2="17.9895" y2="22.4741">
			<stop  offset="0" style="stop-color:#651916"/>
			<stop  offset="0.3133" style="stop-color:#661B19"/>
			<stop  offset="0.515" style="stop-color:#692221"/>
			<stop  offset="0.6852" style="stop-color:#6F2D30"/>
			<stop  offset="0.8379" style="stop-color:#763D45"/>
			<stop  offset="0.9775" style="stop-color:#805260"/>
			<stop  offset="1" style="stop-color:#825665"/>
		</linearGradient>
		<path class="st0" d="M17.6,22.2H6.4c-1.9,0-3.4-1.5-3.4-3.4V5.4C3,3.5,4.5,2,6.4,2h11.2C19.5,2,21,3.5,21,5.4v13.4
			C20.9,20.7,19.4,22.2,17.6,22.2z M6.4,4.2c-0.6,0-1.1,0.5-1.1,1.1v13.4c0,0.6,0.5,1.1,1.1,1.1h11.2c0.6,0,1.1-0.5,1.1-1.1V5.4
			c0-0.6-0.5-1.1-1.1-1.1L6.4,4.2L6.4,4.2z"/>
	</g>
	<g>
		<linearGradient id="SVGID_2_" gradientUnits="userSpaceOnUse" x1="10.4813" y1="7.9427" x2="13.3187" y2="12.8573">
			<stop  offset="0" style="stop-color:#651916"/>
			<stop  offset="0.3133" style="stop-color:#661B19"/>
			<stop  offset="0.515" style="stop-color:#692221"/>
			<stop  offset="0.6852" style="stop-color:#6F2D30"/>
			<stop  offset="0.8379" style="stop-color:#763D45"/>
			<stop  offset="0.9775" style="stop-color:#805260"/>
			<stop  offset="1" style="stop-color:#825665"/>
		</linearGradient>
		<path class="st1" d="M16.4,11h-9c-0.3,0-0.6-0.3-0.6-0.6s0.3-0.6,0.6-0.6h9c0.3,0,0.6,0.3,0.6,0.6S16.7,11,16.4,11z"/>
	</g>
	<g>
		<linearGradient id="SVGID_3_" gradientUnits="userSpaceOnUse" x1="10.5395" y1="4.5668" x2="13.352" y2="9.4382">
			<stop  offset="0" style="stop-color:#651916"/>
			<stop  offset="0.3133" style="stop-color:#661B19"/>
			<stop  offset="0.515" style="stop-color:#692221"/>
			<stop  offset="0.6852" style="stop-color:#6F2D30"/>
			<stop  offset="0.8379" style="stop-color:#763D45"/>
			<stop  offset="0.9775" style="stop-color:#805260"/>
			<stop  offset="1" style="stop-color:#825665"/>
		</linearGradient>
		<path class="st2" d="M16.4,7.6h-9C7.2,7.6,6.9,7.3,6.9,7s0.3-0.6,0.6-0.6h9C16.7,6.5,17,6.7,17,7S16.7,7.6,16.4,7.6z"/>
	</g>
	<g>
		<linearGradient id="SVGID_4_" gradientUnits="userSpaceOnUse" x1="10.4813" y1="11.2427" x2="13.3187" y2="16.1573">
			<stop  offset="0" style="stop-color:#651916"/>
			<stop  offset="0.3133" style="stop-color:#661B19"/>
			<stop  offset="0.515" style="stop-color:#692221"/>
			<stop  offset="0.6852" style="stop-color:#6F2D30"/>
			<stop  offset="0.8379" style="stop-color:#763D45"/>
			<stop  offset="0.9775" style="stop-color:#805260"/>
			<stop  offset="1" style="stop-color:#825665"/>
		</linearGradient>
		<path class="st3" d="M16.4,14.3h-9c-0.3,0-0.6-0.3-0.6-0.6s0.3-0.6,0.6-0.6h9c0.3,0,0.6,0.3,0.6,0.6S16.7,14.3,16.4,14.3z"/>
	</g>
	<g>
		<linearGradient id="SVGID_5_" gradientUnits="userSpaceOnUse" x1="10.4813" y1="14.6427" x2="13.3187" y2="19.5573">
			<stop  offset="0" style="stop-color:#651916"/>
			<stop  offset="0.3133" style="stop-color:#661B19"/>
			<stop  offset="0.515" style="stop-color:#692221"/>
			<stop  offset="0.6852" style="stop-color:#6F2D30"/>
			<stop  offset="0.8379" style="stop-color:#763D45"/>
			<stop  offset="0.9775" style="stop-color:#805260"/>
			<stop  offset="1" style="stop-color:#825665"/>
		</linearGradient>
		<path class="st4" d="M16.4,17.7h-9c-0.3,0-0.6-0.3-0.6-0.6s0.3-0.6,0.6-0.6h9c0.3,0,0.6,0.3,0.6,0.6S16.7,17.7,16.4,17.7z"/>
	</g>
</g>
</svg>
