<svg enable-background="new 0 0 24 24" viewBox="0 0 24 24" xmlns="http://www.w3.org/2000/svg" xmlns:xlink="http://www.w3.org/1999/xlink"><linearGradient id="a"><stop offset="0" stop-color="#651916"/><stop offset=".3133" stop-color="#661b19"/><stop offset=".515" stop-color="#692221"/><stop offset=".6852" stop-color="#6f2d30"/><stop offset=".8379" stop-color="#763d45"/><stop offset=".9775" stop-color="#805260"/><stop offset="1" stop-color="#825665"/></linearGradient><linearGradient id="b" gradientUnits="userSpaceOnUse" x1="5.9939" x2="17.9895" xlink:href="#a" y1="1.6972" y2="22.4741"/><linearGradient id="c" gradientUnits="userSpaceOnUse" x1="10.4813" x2="13.3187" xlink:href="#a" y1="7.9427" y2="12.8573"/><linearGradient id="d" gradientUnits="userSpaceOnUse" x1="10.5395" x2="13.352" xlink:href="#a" y1="4.5668" y2="9.4382"/><linearGradient id="e" gradientUnits="userSpaceOnUse" x1="10.4813" x2="13.3187" xlink:href="#a" y1="11.2427" y2="16.1573"/><linearGradient id="f" gradientUnits="userSpaceOnUse" x1="10.4813" x2="13.3187" xlink:href="#a" y1="14.6427" y2="19.5573"/><path d="m17.6 22.2h-11.2c-1.9 0-3.4-1.5-3.4-3.4v-13.4c0-1.9 1.5-3.4 3.4-3.4h11.2c1.9 0 3.4 1.5 3.4 3.4v13.4c-.1 1.9-1.6 3.4-3.4 3.4zm-11.2-18c-.6 0-1.1.5-1.1 1.1v13.4c0 .6.5 1.1 1.1 1.1h11.2c.6 0 1.1-.5 1.1-1.1v-13.3c0-.6-.5-1.1-1.1-1.1z" fill="url(#b)"/><path d="m16.4 11h-9c-.3 0-.6-.3-.6-.6s.3-.6.6-.6h9c.3 0 .6.3.6.6s-.3.6-.6.6z" fill="url(#c)"/><path d="m16.4 7.6h-9c-.2 0-.5-.3-.5-.6s.3-.6.6-.6h9c.2.1.5.3.5.6s-.3.6-.6.6z" fill="url(#d)"/><path d="m16.4 14.3h-9c-.3 0-.6-.3-.6-.6s.3-.6.6-.6h9c.3 0 .6.3.6.6s-.3.6-.6.6z" fill="url(#e)"/><path d="m16.4 17.7h-9c-.3 0-.6-.3-.6-.6s.3-.6.6-.6h9c.3 0 .6.3.6.6s-.3.6-.6.6z" fill="url(#f)"/></svg>